<?xml version="1.0" encoding="UTF-8"?>
<svg width="60px" height="60px" viewBox="0 0 60 60" version="1.1" xmlns="http://www.w3.org/2000/svg" xmlns:xlink="http://www.w3.org/1999/xlink">
    <!-- Generator: Sketch 63.1 (92452) - https://sketch.com -->
    <title>SCM</title>
    <desc>Created with Sketch.</desc>
    <g id="Frame-W1440px" stroke="none" stroke-width="1" fill="none" fill-rule="evenodd">
        <g id="butten" transform="translate(-557.000000, -343.000000)">
            <g id="SCM" transform="translate(557.000000, 343.000000)">
                <circle id="Oval" fill="#60BA9A" cx="30" cy="30" r="30"></circle>
                <g id="Group-20" transform="translate(10.000000, 15.000000)" fill="#FFFFFF">
                    <path d="M20.027238,25.1384047 C18.388878,25.1384047 16.755378,24.8397847 15.304938,24.2798046 C12.9796979,23.3758446 9.88009789,21.3362646 8.28709787,16.7581445 L8.13427787,16.3212845 L31.7398382,8.11760443 L31.8915782,8.55608444 C32.2171982,9.49568445 32.8776182,12.7000445 32.0119982,16.1776445 C30.9989582,20.2217046 28.3696981,23.0070246 24.1911781,24.4590846 C22.9075981,24.9029647 21.470118,25.1384047 20.027238,25.1384047 M38.3532183,6.1304044 L37.2651183,2.64848436 C36.8039582,1.17374434 35.9183582,0.426924328 34.6363982,0.426924328 C34.1773982,0.426924328 33.6622382,0.523044329 33.1098182,0.715824331 L2.55607779,11.3327645 C1.47931778,11.7080645 0.772457768,12.2491445 0.452777764,12.9419645 C0.13903776,13.6045445 0.17305776,14.4345245 0.548897765,15.4113845 L1.85623778,18.8123046 C4.57351782,25.9181647 9.25207788,29.0247847 12.6983579,30.3807247 C15.021978,31.2927847 17.620998,31.7771647 20.206518,31.7771647 C22.3800181,31.7771647 24.5356981,31.4288647 26.4294781,30.7684447 C36.3622382,27.3167647 41.5980783,16.4957045 38.3532183,6.1304044" id="Fill-5"></path>
                </g>
            </g>
        </g>
    </g>
</svg>